<svg id="Capa_1" enable-background="new 0 0 512 512" height="512" viewBox="0 0 512 512" width="512" xmlns="http://www.w3.org/2000/svg"><path d="m505.671 244.464c-16.639-58.728-65.326-80.618-105.369-70.036-34.175-50.209-106.235-59.479-144.302-2.872-38.067-56.607-110.127-47.338-144.302 2.872-40.043-10.582-88.73 11.308-105.369 70.036-24.731 87.289 30.993 147.103 30.993 147.103h95.856 122.822 122.822 95.856c0-.001 55.724-59.814 30.993-147.103z" fill="#ff4755"/><path d="m215.068 96.242h23.421v55.599c6.356 5.367 12.26 11.907 17.512 19.716 5.249-7.806 11.151-14.344 17.505-19.71v-55.605h23.42c9.669 0 17.508-7.839 17.508-17.508s-7.839-17.508-17.508-17.508h-23.42v-23.506c0-9.669-7.839-17.508-17.508-17.508-9.67 0-17.508 7.839-17.508 17.508v23.506h-23.421c-9.67 0-17.508 7.839-17.508 17.508-.001 9.669 7.837 17.508 17.507 17.508z" fill="#ffe55a"/><path d="m254.924 37.72v18.344c0 2.851 2.311 5.161 5.161 5.161h13.419v-22.987c0-9.371-7.147-17.466-16.503-17.998-3.799-.216-7.339.801-10.296 2.659 4.932 3.097 8.219 8.569 8.219 14.821z" fill="#ffd500"/><path d="m256 171.556c5.249-7.806 11.151-14.344 17.505-19.71v-55.604h-12.344c-2.85 0-5.161 2.311-5.161 5.161z" fill="#ffd500"/><path d="m296.925 61.225h-18.581c9.669 0 17.508 7.839 17.508 17.508s-7.839 17.508-17.508 17.508h18.581c9.669 0 17.508-7.839 17.508-17.508.001-9.669-7.838-17.508-17.508-17.508z" fill="#ffd500"/><path d="m31.605 447.999h448.789c12.092 0 21.895 9.803 21.895 21.895 0 12.092-9.803 21.895-21.895 21.895h-448.789c-12.092 0-21.895-9.803-21.895-21.895.001-12.093 9.803-21.895 21.895-21.895z" fill="#ffaa5c"/><path d="m480.395 473.208h-448.79c-8.766 0-16.307-5.164-19.804-12.605-1.327 2.823-2.09 5.964-2.09 9.29 0 12.092 9.803 21.895 21.895 21.895h448.789c12.092 0 21.895-9.803 21.895-21.895 0-3.326-.763-6.467-2.09-9.29-3.498 7.441-11.039 12.605-19.805 12.605z" fill="#ff9838"/><path d="m37.322 391.566h437.356v56.432h-437.356z" fill="#ffe55a" transform="matrix(-1 0 0 -1 512 839.565)"/><path d="m37.322 429.418h437.356v18.581h-437.356z" fill="#ffd500"/><g fill="#fc2b3a"><path d="m237.419 150.935v240.631h18.581v-220.01c-5.546-8.247-11.814-15.093-18.581-20.621z"/><path d="m414.156 203.635c-14.452-47.987-57.578-74.997-98.327-70.292 34.58 3.957 67.485 29.577 79.747 70.292 29.741 98.758-35.334 187.931-35.334 187.931h18.581c-.001 0 65.075-89.174 35.333-187.931z"/><path d="m97.844 203.635c3.268-10.852 8.012-20.623 13.854-29.207-5.484-1.449-11.132-2.267-16.836-2.486-6.648 9.165-12.011 19.779-15.599 31.693-29.741 98.755 35.33 187.926 35.334 187.931h18.581s-65.076-89.173-35.334-187.931z"/><path d="m505.671 244.464c-15.199-53.645-57.137-76.536-94.803-72.033 32.017 3.769 63.495 27.113 76.222 72.033 24.731 87.289-30.993 147.103-30.993 147.103h18.581c0-.001 55.724-59.814 30.993-147.103z"/></g></svg>